<?xml version="1.0" encoding="utf-8" standalone="no"?>
<!DOCTYPE svg PUBLIC "-//W3C//DTD SVG 1.1//EN"
  "http://www.w3.org/Graphics/SVG/1.1/DTD/svg11.dtd">
<svg xmlns:xlink="http://www.w3.org/1999/xlink" width="504pt" height="259.2pt" viewBox="0 0 504 259.2" xmlns="http://www.w3.org/2000/svg" version="1.1">
 <metadata>
  <rdf:RDF xmlns:dc="http://purl.org/dc/elements/1.1/" xmlns:cc="http://creativecommons.org/ns#" xmlns:rdf="http://www.w3.org/1999/02/22-rdf-syntax-ns#">
   <cc:Work>
    <dc:type rdf:resource="http://purl.org/dc/dcmitype/StillImage"/>
    <dc:date>2026-03-30T21:53:06.800808</dc:date>
    <dc:format>image/svg+xml</dc:format>
    <dc:creator>
     <cc:Agent>
      <dc:title>Matplotlib v3.10.8, https://matplotlib.org/</dc:title>
     </cc:Agent>
    </dc:creator>
   </cc:Work>
  </rdf:RDF>
 </metadata>
 <defs>
  <style type="text/css">*{stroke-linejoin: round; stroke-linecap: butt}</style>
 </defs>
 <g id="figure_1">
  <g id="patch_1">
   <path d="M 0 259.2 
L 504 259.2 
L 504 0 
L 0 0 
z
" style="fill: #ffffff"/>
  </g>
  <g id="axes_1">
   <g id="patch_2">
    <path d="M 40.32 225.504 
L 255.973846 225.504 
L 255.973846 57.024 
L 40.32 57.024 
z
" style="fill: #fdf0ec"/>
   </g>
   <g id="matplotlib.axis_1">
    <g id="xtick_1">
     <g id="line2d_1"/>
     <g id="text_1">
      <!-- Opus -->
      <g style="fill: #444444" transform="translate(58.493275 236.008766) scale(0.095 -0.095)">
       <defs>
        <path id="Inter-Regular-4f" d="M 2450 -63 
Q 1853 -63 1386 226 
Q 919 516 650 1052 
Q 381 1588 381 2325 
Q 381 3066 650 3602 
Q 919 4138 1386 4428 
Q 1853 4719 2450 4719 
Q 3047 4719 3512 4428 
Q 3978 4138 4245 3602 
Q 4513 3066 4513 2325 
Q 4513 1588 4245 1052 
Q 3978 516 3512 226 
Q 3047 -63 2450 -63 
z
M 2450 488 
Q 2866 488 3202 698 
Q 3538 909 3736 1320 
Q 3934 1731 3934 2325 
Q 3934 2925 3736 3336 
Q 3538 3747 3202 3958 
Q 2866 4169 2450 4169 
Q 2031 4169 1693 3956 
Q 1356 3744 1157 3333 
Q 959 2922 959 2325 
Q 959 1731 1157 1322 
Q 1356 913 1693 700 
Q 2031 488 2450 488 
z
" transform="scale(0.015625)"/>
        <path id="Inter-Regular-70" d="M 494 -1306 
L 494 3494 
L 1038 3494 
L 1038 2934 
L 1100 2934 
Q 1159 3028 1265 3170 
Q 1372 3313 1572 3425 
Q 1772 3538 2113 3538 
Q 2550 3538 2883 3319 
Q 3216 3100 3405 2695 
Q 3594 2291 3594 1738 
Q 3594 1181 3406 775 
Q 3219 369 2886 147 
Q 2553 -75 2116 -75 
Q 1784 -75 1581 39 
Q 1378 153 1268 298 
Q 1159 444 1100 541 
L 1056 541 
L 1056 -1306 
L 494 -1306 
z
M 2031 428 
Q 2359 428 2579 604 
Q 2800 781 2911 1079 
Q 3022 1378 3022 1744 
Q 3022 2106 2912 2398 
Q 2803 2691 2583 2862 
Q 2363 3034 2031 3034 
Q 1709 3034 1490 2871 
Q 1272 2709 1161 2420 
Q 1050 2131 1050 1744 
Q 1050 1356 1162 1059 
Q 1275 763 1495 595 
Q 1716 428 2031 428 
z
" transform="scale(0.015625)"/>
        <path id="Inter-Regular-75" d="M 1678 -44 
Q 1325 -44 1058 101 
Q 791 247 642 540 
Q 494 834 494 1275 
L 494 3494 
L 1056 3494 
L 1056 1322 
Q 1056 919 1268 691 
Q 1481 463 1847 463 
Q 2097 463 2295 572 
Q 2494 681 2609 892 
Q 2725 1103 2725 1400 
L 2725 3494 
L 3291 3494 
L 3291 0 
L 2747 0 
L 2747 847 
L 2822 847 
Q 2659 356 2361 156 
Q 2063 -44 1678 -44 
z
" transform="scale(0.015625)"/>
        <path id="Inter-Regular-73" d="M 1681 -75 
Q 1322 -75 1042 29 
Q 763 134 581 340 
Q 400 547 338 847 
L 872 975 
Q 947 688 1155 553 
Q 1363 419 1675 419 
Q 2041 419 2258 575 
Q 2475 731 2475 947 
Q 2475 1128 2348 1248 
Q 2222 1369 1963 1428 
L 1381 1566 
Q 906 1678 675 1914 
Q 444 2150 444 2519 
Q 444 2819 612 3048 
Q 781 3278 1073 3408 
Q 1366 3538 1738 3538 
Q 2097 3538 2348 3430 
Q 2600 3322 2758 3133 
Q 2916 2944 2994 2697 
L 2484 2566 
Q 2413 2753 2245 2906 
Q 2078 3059 1741 3059 
Q 1428 3059 1220 2915 
Q 1013 2772 1013 2553 
Q 1013 2359 1153 2242 
Q 1294 2125 1600 2053 
L 2128 1928 
Q 2603 1816 2831 1580 
Q 3059 1344 3059 984 
Q 3059 678 2886 439 
Q 2713 200 2402 62 
Q 2091 -75 1681 -75 
z
" transform="scale(0.015625)"/>
       </defs>
       <use xlink:href="#Inter-Regular-4f"/>
       <use xlink:href="#Inter-Regular-70" transform="translate(76.464844 0)"/>
       <use xlink:href="#Inter-Regular-75" transform="translate(137.695312 0)"/>
       <use xlink:href="#Inter-Regular-73" transform="translate(196.826172 0)"/>
      </g>
     </g>
    </g>
    <g id="xtick_2">
     <g id="line2d_2"/>
     <g id="text_2">
      <!-- Sonnet -->
      <g style="fill: #444444" transform="translate(132.315322 235.91525) scale(0.095 -0.095)">
       <defs>
        <path id="Inter-Regular-53" d="M 2053 -81 
Q 1550 -81 1179 81 
Q 809 244 600 536 
Q 391 828 363 1219 
L 972 1219 
Q 997 956 1150 786 
Q 1303 616 1542 533 
Q 1781 450 2053 450 
Q 2369 450 2620 553 
Q 2872 656 3019 843 
Q 3166 1031 3166 1278 
Q 3166 1503 3039 1643 
Q 2913 1784 2703 1875 
Q 2494 1966 2244 2034 
L 1681 2194 
Q 1119 2353 806 2650 
Q 494 2947 494 3409 
Q 494 3803 706 4098 
Q 919 4394 1281 4556 
Q 1644 4719 2094 4719 
Q 2553 4719 2906 4556 
Q 3259 4394 3464 4114 
Q 3669 3834 3681 3481 
L 3100 3481 
Q 3059 3822 2775 4008 
Q 2491 4194 2075 4194 
Q 1775 4194 1548 4095 
Q 1322 3997 1197 3826 
Q 1072 3656 1072 3438 
Q 1072 3194 1223 3045 
Q 1375 2897 1583 2814 
Q 1791 2731 1959 2684 
L 2425 2556 
Q 2613 2506 2839 2418 
Q 3066 2331 3272 2186 
Q 3478 2041 3611 1817 
Q 3744 1594 3744 1269 
Q 3744 888 3545 581 
Q 3347 275 2969 97 
Q 2591 -81 2053 -81 
z
" transform="scale(0.015625)"/>
        <path id="Inter-Regular-6f" d="M 1916 -75 
Q 1441 -75 1083 150 
Q 725 375 525 781 
Q 325 1188 325 1725 
Q 325 2272 525 2680 
Q 725 3088 1083 3313 
Q 1441 3538 1916 3538 
Q 2394 3538 2753 3313 
Q 3113 3088 3313 2680 
Q 3513 2272 3513 1725 
Q 3513 1188 3313 781 
Q 3113 375 2753 150 
Q 2394 -75 1916 -75 
z
M 1916 428 
Q 2269 428 2497 609 
Q 2725 791 2834 1086 
Q 2944 1381 2944 1725 
Q 2944 2072 2834 2370 
Q 2725 2669 2497 2851 
Q 2269 3034 1916 3034 
Q 1566 3034 1341 2851 
Q 1116 2669 1006 2372 
Q 897 2075 897 1725 
Q 897 1381 1006 1086 
Q 1116 791 1341 609 
Q 1566 428 1916 428 
z
" transform="scale(0.015625)"/>
        <path id="Inter-Regular-6e" d="M 1056 2094 
L 1056 0 
L 494 0 
L 494 3494 
L 1034 3494 
L 1038 2647 
L 959 2647 
Q 1119 3131 1414 3334 
Q 1709 3538 2106 3538 
Q 2459 3538 2725 3392 
Q 2991 3247 3139 2955 
Q 3288 2663 3288 2219 
L 3288 0 
L 2725 0 
L 2725 2172 
Q 2725 2575 2514 2803 
Q 2303 3031 1938 3031 
Q 1688 3031 1488 2922 
Q 1288 2813 1172 2603 
Q 1056 2394 1056 2094 
z
" transform="scale(0.015625)"/>
        <path id="Inter-Regular-65" d="M 1963 -75 
Q 1456 -75 1089 150 
Q 722 375 523 778 
Q 325 1181 325 1719 
Q 325 2256 519 2665 
Q 713 3075 1067 3306 
Q 1422 3538 1897 3538 
Q 2175 3538 2445 3445 
Q 2716 3353 2936 3148 
Q 3156 2944 3287 2609 
Q 3419 2275 3419 1791 
L 3419 1556 
L 706 1556 
L 706 2031 
L 3116 2031 
L 2853 1856 
Q 2853 2200 2745 2467 
Q 2638 2734 2425 2886 
Q 2213 3038 1897 3038 
Q 1581 3038 1356 2883 
Q 1131 2728 1012 2479 
Q 894 2231 894 1947 
L 894 1631 
Q 894 1244 1028 973 
Q 1163 703 1405 564 
Q 1647 425 1966 425 
Q 2172 425 2340 484 
Q 2509 544 2631 664 
Q 2753 784 2819 963 
L 3363 813 
Q 3281 550 3087 350 
Q 2894 150 2608 37 
Q 2322 -75 1963 -75 
z
" transform="scale(0.015625)"/>
        <path id="Inter-Regular-74" d="M 1869 3494 
L 1869 3013 
L 63 3013 
L 63 3494 
L 1869 3494 
z
M 588 4325 
L 1150 4325 
L 1150 906 
Q 1150 672 1245 564 
Q 1341 456 1563 456 
Q 1616 456 1698 468 
Q 1781 481 1850 494 
L 1966 19 
Q 1878 -13 1767 -28 
Q 1656 -44 1547 -44 
Q 1094 -44 841 195 
Q 588 434 588 863 
L 588 4325 
z
" transform="scale(0.015625)"/>
       </defs>
       <use xlink:href="#Inter-Regular-53"/>
       <use xlink:href="#Inter-Regular-6f" transform="translate(64.160156 0)"/>
       <use xlink:href="#Inter-Regular-6e" transform="translate(124.121094 0)"/>
       <use xlink:href="#Inter-Regular-6e" transform="translate(183.203125 0)"/>
       <use xlink:href="#Inter-Regular-65" transform="translate(242.285156 0)"/>
       <use xlink:href="#Inter-Regular-74" transform="translate(300.585938 0)"/>
      </g>
     </g>
    </g>
    <g id="xtick_3">
     <g id="line2d_3"/>
     <g id="text_3">
      <!-- Haiku -->
      <g style="fill: #444444" transform="translate(213.180727 235.91525) scale(0.095 -0.095)">
       <defs>
        <path id="Inter-Regular-48" d="M 563 0 
L 563 4656 
L 1156 4656 
L 1156 2644 
L 3600 2644 
L 3600 4656 
L 4194 4656 
L 4194 0 
L 3600 0 
L 3600 2119 
L 1156 2119 
L 1156 0 
L 563 0 
z
" transform="scale(0.015625)"/>
        <path id="Inter-Regular-61" d="M 1472 -81 
Q 1141 -81 870 44 
Q 600 169 440 409 
Q 281 650 281 994 
Q 281 1294 400 1481 
Q 519 1669 717 1776 
Q 916 1884 1156 1937 
Q 1397 1991 1641 2022 
Q 1953 2063 2150 2084 
Q 2347 2106 2442 2159 
Q 2538 2213 2538 2341 
L 2538 2359 
Q 2538 2578 2456 2729 
Q 2375 2881 2212 2962 
Q 2050 3044 1806 3044 
Q 1556 3044 1378 2966 
Q 1200 2888 1089 2770 
Q 978 2653 922 2531 
L 381 2709 
Q 516 3028 744 3208 
Q 972 3388 1247 3463 
Q 1522 3538 1791 3538 
Q 1966 3538 2189 3495 
Q 2413 3453 2620 3328 
Q 2828 3203 2964 2958 
Q 3100 2713 3100 2303 
L 3100 0 
L 2547 0 
L 2547 475 
L 2509 475 
Q 2450 353 2319 223 
Q 2188 94 1978 6 
Q 1769 -81 1472 -81 
z
M 1569 416 
Q 1881 416 2097 537 
Q 2313 659 2425 854 
Q 2538 1050 2538 1263 
L 2538 1747 
Q 2503 1706 2387 1673 
Q 2272 1641 2123 1616 
Q 1975 1591 1836 1573 
Q 1697 1556 1616 1547 
Q 1413 1522 1236 1461 
Q 1059 1400 953 1283 
Q 847 1166 847 966 
Q 847 784 940 662 
Q 1034 541 1196 478 
Q 1359 416 1569 416 
z
" transform="scale(0.015625)"/>
        <path id="Inter-Regular-69" d="M 494 0 
L 494 3494 
L 1056 3494 
L 1056 0 
L 494 0 
z
M 780 4066 
Q 621 4066 505 4175 
Q 389 4284 389 4438 
Q 389 4594 505 4701 
Q 621 4809 780 4809 
Q 942 4809 1058 4701 
Q 1174 4594 1174 4438 
Q 1174 4284 1058 4175 
Q 942 4066 780 4066 
z
" transform="scale(0.015625)"/>
        <path id="Inter-Regular-6b" d="M 1022 1256 
L 1022 1953 
L 1125 1953 
L 2619 3494 
L 3316 3494 
L 1700 1834 
L 1638 1834 
L 1022 1256 
z
M 494 0 
L 494 4656 
L 1056 4656 
L 1056 0 
L 494 0 
z
M 2703 0 
L 1366 1709 
L 1766 2106 
L 3425 0 
L 2703 0 
z
" transform="scale(0.015625)"/>
       </defs>
       <use xlink:href="#Inter-Regular-48"/>
       <use xlink:href="#Inter-Regular-61" transform="translate(74.316406 0)"/>
       <use xlink:href="#Inter-Regular-69" transform="translate(130.46875 0)"/>
       <use xlink:href="#Inter-Regular-6b" transform="translate(154.6875 0)"/>
       <use xlink:href="#Inter-Regular-75" transform="translate(209.570312 0)"/>
      </g>
     </g>
    </g>
   </g>
   <g id="matplotlib.axis_2">
    <g id="ytick_1">
     <g id="line2d_4">
      <path d="M 40.32 225.504 
L 255.973846 225.504 
" clip-path="url(#pcfc16675e4)" style="fill: none; stroke: #dddddd; stroke-width: 0.6; stroke-linecap: square"/>
     </g>
     <g id="line2d_5"/>
     <g id="text_4">
      <!-- 0.0 -->
      <g style="fill: #888888" transform="translate(23.645 228.595875) scale(0.085 -0.085)">
       <defs>
        <path id="Inter-Regular-30" d="M 2019 -63 
Q 1500 -63 1134 218 
Q 769 500 575 1033 
Q 381 1566 381 2325 
Q 381 3081 576 3615 
Q 772 4150 1137 4434 
Q 1503 4719 2019 4719 
Q 2534 4719 2901 4434 
Q 3269 4150 3462 3615 
Q 3656 3081 3656 2325 
Q 3656 1569 3464 1034 
Q 3272 500 2906 218 
Q 2541 -63 2019 -63 
z
M 2019 456 
Q 2359 456 2596 678 
Q 2834 900 2959 1317 
Q 3084 1734 3084 2325 
Q 3084 2919 2959 3339 
Q 2834 3759 2596 3981 
Q 2359 4203 2019 4203 
Q 1678 4203 1440 3979 
Q 1203 3756 1078 3337 
Q 953 2919 953 2325 
Q 953 1734 1078 1317 
Q 1203 900 1440 678 
Q 1678 456 2019 456 
z
" transform="scale(0.015625)"/>
        <path id="Inter-Regular-2e" d="M 922 -41 
Q 747 -41 623 82 
Q 500 206 500 381 
Q 500 556 623 679 
Q 747 803 922 803 
Q 1097 803 1220 679 
Q 1344 556 1344 381 
Q 1344 206 1220 82 
Q 1097 -41 922 -41 
z
" transform="scale(0.015625)"/>
       </defs>
       <use xlink:href="#Inter-Regular-30"/>
       <use xlink:href="#Inter-Regular-2e" transform="translate(63.085938 0)"/>
       <use xlink:href="#Inter-Regular-30" transform="translate(91.894531 0)"/>
      </g>
     </g>
    </g>
    <g id="ytick_2">
     <g id="line2d_6">
      <path d="M 40.32 196.948068 
L 255.973846 196.948068 
" clip-path="url(#pcfc16675e4)" style="fill: none; stroke: #dddddd; stroke-width: 0.6; stroke-linecap: square"/>
     </g>
     <g id="line2d_7"/>
     <g id="text_5">
      <!-- 0.2 -->
      <g style="fill: #888888" transform="translate(23.824297 200.039943) scale(0.085 -0.085)">
       <defs>
        <path id="Inter-Regular-32" d="M 481 0 
L 481 428 
L 2028 2106 
Q 2288 2388 2459 2600 
Q 2631 2813 2718 3005 
Q 2806 3197 2806 3413 
Q 2806 3656 2690 3834 
Q 2575 4013 2378 4108 
Q 2181 4203 1931 4203 
Q 1666 4203 1470 4095 
Q 1275 3988 1169 3792 
Q 1063 3597 1063 3334 
L 494 3334 
Q 494 3747 684 4059 
Q 875 4372 1203 4545 
Q 1531 4719 1947 4719 
Q 2363 4719 2683 4545 
Q 3003 4372 3186 4078 
Q 3369 3784 3369 3419 
Q 3369 3166 3278 2927 
Q 3188 2688 2959 2384 
Q 2731 2081 2319 1644 
L 1300 559 
L 1300 522 
L 3447 522 
L 3447 0 
L 481 0 
z
" transform="scale(0.015625)"/>
       </defs>
       <use xlink:href="#Inter-Regular-30"/>
       <use xlink:href="#Inter-Regular-2e" transform="translate(63.085938 0)"/>
       <use xlink:href="#Inter-Regular-32" transform="translate(91.894531 0)"/>
      </g>
     </g>
    </g>
    <g id="ytick_3">
     <g id="line2d_8">
      <path d="M 40.32 168.392136 
L 255.973846 168.392136 
" clip-path="url(#pcfc16675e4)" style="fill: none; stroke: #dddddd; stroke-width: 0.6; stroke-linecap: square"/>
     </g>
     <g id="line2d_9"/>
     <g id="text_6">
      <!-- 0.4 -->
      <g style="fill: #888888" transform="translate(23.5175 171.484011) scale(0.085 -0.085)">
       <defs>
        <path id="Inter-Regular-34" d="M 375 947 
L 375 1431 
L 2413 4656 
L 2772 4656 
L 2772 3913 
L 2531 3913 
L 1009 1506 
L 1009 1469 
L 3766 1469 
L 3766 947 
L 375 947 
z
M 2566 0 
L 2566 1091 
L 2569 1319 
L 2569 4656 
L 3134 4656 
L 3134 0 
L 2566 0 
z
" transform="scale(0.015625)"/>
       </defs>
       <use xlink:href="#Inter-Regular-30"/>
       <use xlink:href="#Inter-Regular-2e" transform="translate(63.085938 0)"/>
       <use xlink:href="#Inter-Regular-34" transform="translate(91.894531 0)"/>
      </g>
     </g>
    </g>
    <g id="ytick_4">
     <g id="line2d_10">
      <path d="M 40.32 139.836203 
L 255.973846 139.836203 
" clip-path="url(#pcfc16675e4)" style="fill: none; stroke: #dddddd; stroke-width: 0.6; stroke-linecap: square"/>
     </g>
     <g id="line2d_11"/>
     <g id="text_7">
      <!-- 0.6 -->
      <g style="fill: #888888" transform="translate(23.736641 142.928078) scale(0.085 -0.085)">
       <defs>
        <path id="Inter-Regular-36" d="M 2019 -63 
Q 1728 -63 1437 43 
Q 1147 150 908 400 
Q 669 650 525 1078 
Q 381 1506 381 2150 
Q 381 2766 498 3242 
Q 616 3719 839 4048 
Q 1063 4378 1378 4548 
Q 1694 4719 2091 4719 
Q 2481 4719 2790 4562 
Q 3100 4406 3297 4128 
Q 3494 3850 3550 3484 
L 2969 3484 
Q 2891 3788 2672 3991 
Q 2453 4194 2091 4194 
Q 1734 4194 1476 3984 
Q 1219 3775 1081 3379 
Q 944 2984 944 2425 
L 981 2425 
Q 1106 2619 1281 2758 
Q 1456 2897 1672 2970 
Q 1888 3044 2128 3044 
Q 2528 3044 2859 2847 
Q 3191 2650 3389 2301 
Q 3588 1953 3588 1503 
Q 3588 1069 3394 714 
Q 3200 359 2847 148 
Q 2494 -63 2019 -63 
z
M 2019 459 
Q 2300 459 2525 600 
Q 2750 741 2881 977 
Q 3013 1213 3013 1503 
Q 3013 1788 2886 2020 
Q 2759 2253 2537 2390 
Q 2316 2528 2034 2528 
Q 1822 2528 1639 2445 
Q 1456 2363 1318 2217 
Q 1181 2072 1104 1886 
Q 1028 1700 1028 1497 
Q 1028 1222 1156 986 
Q 1284 750 1509 604 
Q 1734 459 2019 459 
z
" transform="scale(0.015625)"/>
       </defs>
       <use xlink:href="#Inter-Regular-30"/>
       <use xlink:href="#Inter-Regular-2e" transform="translate(63.085938 0)"/>
       <use xlink:href="#Inter-Regular-36" transform="translate(91.894531 0)"/>
      </g>
     </g>
    </g>
    <g id="ytick_5">
     <g id="line2d_12">
      <path d="M 40.32 111.280271 
L 255.973846 111.280271 
" clip-path="url(#pcfc16675e4)" style="fill: none; stroke: #dddddd; stroke-width: 0.6; stroke-linecap: square"/>
     </g>
     <g id="line2d_13"/>
     <g id="text_8">
      <!-- 0.8 -->
      <g style="fill: #888888" transform="translate(23.749922 114.372146) scale(0.085 -0.085)">
       <defs>
        <path id="Inter-Regular-38" d="M 1978 -63 
Q 1506 -63 1145 104 
Q 784 272 582 565 
Q 381 859 381 1238 
Q 381 1531 500 1782 
Q 619 2034 825 2203 
Q 1031 2372 1291 2419 
L 1291 2444 
Q 950 2531 750 2822 
Q 550 3113 550 3481 
Q 550 3838 734 4117 
Q 919 4397 1241 4558 
Q 1563 4719 1978 4719 
Q 2388 4719 2709 4558 
Q 3031 4397 3217 4117 
Q 3403 3838 3403 3481 
Q 3403 3113 3201 2822 
Q 3000 2531 2669 2444 
L 2669 2419 
Q 2922 2372 3128 2203 
Q 3334 2034 3456 1782 
Q 3578 1531 3578 1238 
Q 3578 859 3373 565 
Q 3169 272 2808 104 
Q 2447 -63 1978 -63 
z
M 1978 453 
Q 2288 453 2513 554 
Q 2738 656 2861 839 
Q 2984 1022 2984 1269 
Q 2984 1528 2853 1726 
Q 2722 1925 2494 2039 
Q 2266 2153 1978 2153 
Q 1684 2153 1456 2039 
Q 1228 1925 1097 1726 
Q 966 1528 966 1269 
Q 966 1022 1087 839 
Q 1209 656 1437 554 
Q 1666 453 1978 453 
z
M 1978 2650 
Q 2225 2650 2415 2748 
Q 2606 2847 2717 3025 
Q 2828 3203 2828 3438 
Q 2828 3672 2722 3844 
Q 2616 4016 2423 4111 
Q 2231 4206 1978 4206 
Q 1722 4206 1530 4111 
Q 1338 4016 1231 3844 
Q 1125 3672 1125 3438 
Q 1125 3203 1233 3025 
Q 1341 2847 1534 2748 
Q 1728 2650 1978 2650 
z
" transform="scale(0.015625)"/>
       </defs>
       <use xlink:href="#Inter-Regular-30"/>
       <use xlink:href="#Inter-Regular-2e" transform="translate(63.085938 0)"/>
       <use xlink:href="#Inter-Regular-38" transform="translate(91.894531 0)"/>
      </g>
     </g>
    </g>
    <g id="ytick_6">
     <g id="line2d_14">
      <path d="M 40.32 82.724339 
L 255.973846 82.724339 
" clip-path="url(#pcfc16675e4)" style="fill: none; stroke: #dddddd; stroke-width: 0.6; stroke-linecap: square"/>
     </g>
     <g id="line2d_15"/>
     <g id="text_9">
      <!-- 1.0 -->
      <g style="fill: #888888" transform="translate(25.550859 85.816214) scale(0.085 -0.085)">
       <defs>
        <path id="Inter-Regular-31" d="M 2041 4656 
L 2041 0 
L 1456 0 
L 1456 4106 
L 1425 4106 
L 300 3272 
L 300 3909 
L 1313 4656 
L 2041 4656 
z
" transform="scale(0.015625)"/>
       </defs>
       <use xlink:href="#Inter-Regular-31"/>
       <use xlink:href="#Inter-Regular-2e" transform="translate(40.673828 0)"/>
       <use xlink:href="#Inter-Regular-30" transform="translate(69.482422 0)"/>
      </g>
     </g>
    </g>
    <g id="text_10">
     <!-- Score -->
     <g style="fill: #555555" transform="translate(15.578906 154.430406) rotate(-90) scale(0.095 -0.095)">
      <defs>
       <path id="Inter-Regular-63" d="M 1916 -75 
Q 1441 -75 1083 150 
Q 725 375 525 781 
Q 325 1188 325 1725 
Q 325 2272 525 2680 
Q 725 3088 1083 3313 
Q 1441 3538 1916 3538 
Q 2169 3538 2394 3472 
Q 2619 3406 2805 3282 
Q 2991 3159 3125 2979 
Q 3259 2800 3331 2572 
L 2791 2419 
Q 2753 2553 2675 2665 
Q 2597 2778 2486 2861 
Q 2375 2944 2231 2989 
Q 2088 3034 1916 3034 
Q 1566 3034 1341 2851 
Q 1116 2669 1006 2372 
Q 897 2075 897 1725 
Q 897 1381 1006 1086 
Q 1116 791 1341 609 
Q 1566 428 1916 428 
Q 2091 428 2237 475 
Q 2384 522 2498 608 
Q 2613 694 2691 812 
Q 2769 931 2806 1072 
L 3344 919 
Q 3275 684 3139 501 
Q 3003 319 2815 189 
Q 2628 59 2400 -8 
Q 2172 -75 1916 -75 
z
" transform="scale(0.015625)"/>
       <path id="Inter-Regular-72" d="M 494 0 
L 494 3494 
L 1038 3494 
L 1038 2956 
L 1075 2956 
Q 1172 3222 1420 3383 
Q 1669 3544 1981 3544 
Q 2044 3544 2130 3541 
Q 2216 3538 2266 3534 
L 2266 2969 
Q 2241 2975 2141 2987 
Q 2041 3000 1928 3000 
Q 1678 3000 1479 2895 
Q 1281 2791 1168 2608 
Q 1056 2425 1056 2188 
L 1056 0 
L 494 0 
z
" transform="scale(0.015625)"/>
      </defs>
      <use xlink:href="#Inter-Regular-53"/>
      <use xlink:href="#Inter-Regular-63" transform="translate(64.160156 0)"/>
      <use xlink:href="#Inter-Regular-6f" transform="translate(121.289062 0)"/>
      <use xlink:href="#Inter-Regular-72" transform="translate(181.25 0)"/>
      <use xlink:href="#Inter-Regular-65" transform="translate(218.896484 0)"/>
     </g>
    </g>
   </g>
   <g id="patch_3">
    <path d="M 50.122448 225.504 
L 90.576993 225.504 
L 90.576993 196.948068 
L 50.122448 196.948068 
z
" clip-path="url(#pcfc16675e4)" style="fill: #2d5f8a"/>
   </g>
   <g id="patch_4">
    <path d="M 127.91965 225.504 
L 168.374196 225.504 
L 168.374196 196.948068 
L 127.91965 196.948068 
z
" clip-path="url(#pcfc16675e4)" style="fill: #5a9bd5"/>
   </g>
   <g id="patch_5">
    <path d="M 205.716853 225.504 
L 246.171399 225.504 
L 246.171399 196.948068 
L 205.716853 196.948068 
z
" clip-path="url(#pcfc16675e4)" style="fill: #a8d0e6"/>
   </g>
   <g id="text_11">
    <!-- Window Only  (Arm A) -->
    <g style="fill: #333333" transform="translate(93.047353 47.024) scale(0.105 -0.105)">
     <defs>
      <path id="Inter-Regular-57" d="M 1431 0 
L 163 4656 
L 769 4656 
L 1506 1800 
Q 1566 1572 1619 1336 
Q 1672 1100 1722 858 
Q 1772 616 1816 359 
L 1744 359 
Q 1791 616 1841 858 
Q 1891 1100 1947 1336 
Q 2003 1572 2063 1800 
L 2816 4656 
L 3491 4656 
L 4238 1800 
Q 4300 1572 4354 1336 
Q 4409 1100 4462 858 
Q 4516 616 4563 359 
L 4481 359 
Q 4528 616 4578 858 
Q 4628 1100 4684 1336 
Q 4741 1572 4797 1800 
L 5531 4656 
L 6144 4656 
L 4869 0 
L 4178 0 
L 3378 2950 
Q 3300 3238 3228 3577 
Q 3156 3916 3088 4359 
L 3213 4359 
Q 3144 3941 3078 3611 
Q 3013 3281 2922 2950 
L 2125 0 
L 1431 0 
z
" transform="scale(0.015625)"/>
      <path id="Inter-Regular-64" d="M 1803 -75 
Q 1369 -75 1034 147 
Q 700 369 512 775 
Q 325 1181 325 1738 
Q 325 2291 514 2695 
Q 703 3100 1037 3319 
Q 1372 3538 1806 3538 
Q 2147 3538 2347 3425 
Q 2547 3313 2655 3170 
Q 2763 3028 2819 2934 
L 2863 2934 
L 2863 4656 
L 3425 4656 
L 3425 0 
L 2881 0 
L 2881 541 
L 2819 541 
Q 2763 444 2652 298 
Q 2541 153 2339 39 
Q 2138 -75 1803 -75 
z
M 1888 428 
Q 2206 428 2425 595 
Q 2644 763 2756 1059 
Q 2869 1356 2869 1744 
Q 2869 2131 2758 2420 
Q 2647 2709 2428 2871 
Q 2209 3034 1888 3034 
Q 1556 3034 1336 2862 
Q 1116 2691 1006 2398 
Q 897 2106 897 1744 
Q 897 1378 1008 1079 
Q 1119 781 1341 604 
Q 1563 428 1888 428 
z
" transform="scale(0.015625)"/>
      <path id="Inter-Regular-77" d="M 1278 0 
L 219 3494 
L 816 3494 
L 1241 1969 
Q 1328 1656 1428 1261 
Q 1528 866 1625 366 
L 1528 366 
Q 1622 844 1719 1241 
Q 1816 1638 1906 1969 
L 2325 3494 
L 2925 3494 
L 3338 1969 
Q 3425 1647 3520 1251 
Q 3616 856 3709 366 
L 3609 366 
Q 3709 850 3807 1245 
Q 3906 1641 3997 1969 
L 4422 3494 
L 5019 3494 
L 3959 0 
L 3400 0 
L 2947 1581 
Q 2878 1822 2812 2072 
Q 2747 2322 2684 2584 
Q 2622 2847 2556 3119 
L 2681 3119 
Q 2619 2850 2555 2586 
Q 2491 2322 2425 2069 
Q 2359 1816 2291 1581 
L 1838 0 
L 1278 0 
z
" transform="scale(0.015625)"/>
      <path id="Inter-Regular-20" transform="scale(0.015625)"/>
      <path id="Inter-Regular-6c" d="M 1056 4656 
L 1056 0 
L 494 0 
L 494 4656 
L 1056 4656 
z
" transform="scale(0.015625)"/>
      <path id="Inter-Regular-79" d="M 438 -1266 
L 581 -778 
L 641 -794 
Q 813 -838 953 -817 
Q 1094 -797 1206 -678 
Q 1319 -559 1403 -309 
L 1503 -19 
L 169 3494 
L 784 3494 
L 1528 1422 
Q 1647 1097 1728 778 
Q 1809 459 1900 159 
L 1694 159 
Q 1784 459 1867 779 
Q 1950 1100 2066 1422 
L 2816 3494 
L 3428 3494 
L 1894 -522 
Q 1788 -800 1639 -979 
Q 1491 -1159 1294 -1245 
Q 1097 -1331 850 -1331 
Q 700 -1331 590 -1309 
Q 481 -1288 438 -1266 
z
" transform="scale(0.015625)"/>
      <path id="Inter-Regular-28" d="M 681 1897 
Q 681 2406 786 2964 
Q 891 3522 1072 4039 
Q 1253 4556 1488 4941 
L 2034 4941 
Q 1794 4450 1617 3919 
Q 1441 3388 1347 2870 
Q 1253 2353 1253 1897 
Q 1253 1481 1336 1056 
Q 1419 631 1592 157 
Q 1766 -316 2034 -872 
L 1488 -872 
Q 1091 -194 886 509 
Q 681 1213 681 1897 
z
" transform="scale(0.015625)"/>
      <path id="Inter-Regular-41" d="M 163 0 
L 1853 4656 
L 2541 4656 
L 4253 0 
L 3628 0 
L 2641 2763 
Q 2550 3019 2429 3401 
Q 2309 3784 2138 4378 
L 2250 4378 
Q 2081 3778 1957 3389 
Q 1834 3000 1753 2763 
L 794 0 
L 163 0 
z
M 1013 1300 
L 1013 1819 
L 3403 1819 
L 3403 1300 
L 1013 1300 
z
" transform="scale(0.015625)"/>
      <path id="Inter-Regular-6d" d="M 494 0 
L 494 3494 
L 1041 3494 
L 1044 2713 
L 1000 2713 
Q 1072 2997 1226 3183 
Q 1381 3369 1589 3462 
Q 1797 3556 2022 3556 
Q 2403 3556 2639 3322 
Q 2875 3088 2944 2706 
L 2869 2706 
Q 2931 2969 3097 3159 
Q 3263 3350 3498 3453 
Q 3734 3556 4013 3556 
Q 4316 3556 4566 3425 
Q 4816 3294 4964 3028 
Q 5113 2763 5113 2356 
L 5113 0 
L 4550 0 
L 4550 2341 
Q 4550 2719 4337 2881 
Q 4125 3044 3844 3044 
Q 3609 3044 3439 2945 
Q 3269 2847 3176 2675 
Q 3084 2503 3084 2281 
L 3084 0 
L 2522 0 
L 2522 2397 
Q 2522 2688 2328 2866 
Q 2134 3044 1838 3044 
Q 1634 3044 1454 2948 
Q 1275 2853 1165 2665 
Q 1056 2478 1056 2200 
L 1056 0 
L 494 0 
z
" transform="scale(0.015625)"/>
      <path id="Inter-Regular-29" d="M 300 -872 
Q 578 -300 750 176 
Q 922 653 1001 1075 
Q 1081 1497 1081 1897 
Q 1081 2353 987 2870 
Q 894 3388 719 3919 
Q 544 4450 300 4941 
L 847 4941 
Q 1081 4556 1264 4039 
Q 1447 3522 1550 2962 
Q 1653 2403 1653 1897 
Q 1653 1200 1445 497 
Q 1238 -206 847 -872 
L 300 -872 
z
" transform="scale(0.015625)"/>
     </defs>
     <use xlink:href="#Inter-Regular-57"/>
     <use xlink:href="#Inter-Regular-69" transform="translate(98.535156 0)"/>
     <use xlink:href="#Inter-Regular-6e" transform="translate(122.753906 0)"/>
     <use xlink:href="#Inter-Regular-64" transform="translate(181.835938 0)"/>
     <use xlink:href="#Inter-Regular-6f" transform="translate(243.066406 0)"/>
     <use xlink:href="#Inter-Regular-77" transform="translate(303.027344 0)"/>
     <use xlink:href="#Inter-Regular-20" transform="translate(384.863281 0)"/>
     <use xlink:href="#Inter-Regular-4f" transform="translate(412.988281 0)"/>
     <use xlink:href="#Inter-Regular-6e" transform="translate(489.453125 0)"/>
     <use xlink:href="#Inter-Regular-6c" transform="translate(548.535156 0)"/>
     <use xlink:href="#Inter-Regular-79" transform="translate(572.753906 0)"/>
     <use xlink:href="#Inter-Regular-20" transform="translate(628.955078 0)"/>
     <use xlink:href="#Inter-Regular-20" transform="translate(657.080078 0)"/>
     <use xlink:href="#Inter-Regular-28" transform="translate(685.205078 0)"/>
     <use xlink:href="#Inter-Regular-41" transform="translate(721.679688 0)"/>
     <use xlink:href="#Inter-Regular-72" transform="translate(790.673828 0)"/>
     <use xlink:href="#Inter-Regular-6d" transform="translate(828.320312 0)"/>
     <use xlink:href="#Inter-Regular-20" transform="translate(915.917969 0)"/>
     <use xlink:href="#Inter-Regular-41" transform="translate(944.042969 0)"/>
     <use xlink:href="#Inter-Regular-29" transform="translate(1013.037109 0)"/>
    </g>
   </g>
   <g id="text_12">
    <!-- 0.2 -->
    <g style="fill: #c0392b" transform="translate(61.940736 190.41999) scale(0.11 -0.11)">
     <use xlink:href="#Inter-Regular-30"/>
     <use xlink:href="#Inter-Regular-2e" transform="translate(63.085938 0)"/>
     <use xlink:href="#Inter-Regular-32" transform="translate(91.894531 0)"/>
    </g>
   </g>
   <g id="text_13">
    <!-- 0.2 -->
    <g style="fill: #c0392b" transform="translate(139.737939 190.41999) scale(0.11 -0.11)">
     <use xlink:href="#Inter-Regular-30"/>
     <use xlink:href="#Inter-Regular-2e" transform="translate(63.085938 0)"/>
     <use xlink:href="#Inter-Regular-32" transform="translate(91.894531 0)"/>
    </g>
   </g>
   <g id="text_14">
    <!-- 0.2 -->
    <g style="fill: #c0392b" transform="translate(217.535141 190.41999) scale(0.11 -0.11)">
     <use xlink:href="#Inter-Regular-30"/>
     <use xlink:href="#Inter-Regular-2e" transform="translate(63.085938 0)"/>
     <use xlink:href="#Inter-Regular-32" transform="translate(91.894531 0)"/>
    </g>
   </g>
  </g>
  <g id="axes_2">
   <g id="patch_6">
    <path d="M 273.226154 225.504 
L 488.88 225.504 
L 488.88 57.024 
L 273.226154 57.024 
z
" style="fill: #eef5fa"/>
   </g>
   <g id="matplotlib.axis_3">
    <g id="xtick_4">
     <g id="line2d_16"/>
     <g id="text_15">
      <!-- Opus -->
      <g style="fill: #444444" transform="translate(291.399429 236.008766) scale(0.095 -0.095)">
       <use xlink:href="#Inter-Regular-4f"/>
       <use xlink:href="#Inter-Regular-70" transform="translate(76.464844 0)"/>
       <use xlink:href="#Inter-Regular-75" transform="translate(137.695312 0)"/>
       <use xlink:href="#Inter-Regular-73" transform="translate(196.826172 0)"/>
      </g>
     </g>
    </g>
    <g id="xtick_5">
     <g id="line2d_17"/>
     <g id="text_16">
      <!-- Sonnet -->
      <g style="fill: #444444" transform="translate(365.221475 235.91525) scale(0.095 -0.095)">
       <use xlink:href="#Inter-Regular-53"/>
       <use xlink:href="#Inter-Regular-6f" transform="translate(64.160156 0)"/>
       <use xlink:href="#Inter-Regular-6e" transform="translate(124.121094 0)"/>
       <use xlink:href="#Inter-Regular-6e" transform="translate(183.203125 0)"/>
       <use xlink:href="#Inter-Regular-65" transform="translate(242.285156 0)"/>
       <use xlink:href="#Inter-Regular-74" transform="translate(300.585938 0)"/>
      </g>
     </g>
    </g>
    <g id="xtick_6">
     <g id="line2d_18"/>
     <g id="text_17">
      <!-- Haiku -->
      <g style="fill: #444444" transform="translate(446.086881 235.91525) scale(0.095 -0.095)">
       <use xlink:href="#Inter-Regular-48"/>
       <use xlink:href="#Inter-Regular-61" transform="translate(74.316406 0)"/>
       <use xlink:href="#Inter-Regular-69" transform="translate(130.46875 0)"/>
       <use xlink:href="#Inter-Regular-6b" transform="translate(154.6875 0)"/>
       <use xlink:href="#Inter-Regular-75" transform="translate(209.570312 0)"/>
      </g>
     </g>
    </g>
   </g>
   <g id="matplotlib.axis_4">
    <g id="ytick_7">
     <g id="line2d_19">
      <path d="M 273.226154 225.504 
L 488.88 225.504 
" clip-path="url(#p8b12c474ea)" style="fill: none; stroke: #dddddd; stroke-width: 0.6; stroke-linecap: square"/>
     </g>
     <g id="line2d_20"/>
    </g>
    <g id="ytick_8">
     <g id="line2d_21">
      <path d="M 273.226154 196.948068 
L 488.88 196.948068 
" clip-path="url(#p8b12c474ea)" style="fill: none; stroke: #dddddd; stroke-width: 0.6; stroke-linecap: square"/>
     </g>
     <g id="line2d_22"/>
    </g>
    <g id="ytick_9">
     <g id="line2d_23">
      <path d="M 273.226154 168.392136 
L 488.88 168.392136 
" clip-path="url(#p8b12c474ea)" style="fill: none; stroke: #dddddd; stroke-width: 0.6; stroke-linecap: square"/>
     </g>
     <g id="line2d_24"/>
    </g>
    <g id="ytick_10">
     <g id="line2d_25">
      <path d="M 273.226154 139.836203 
L 488.88 139.836203 
" clip-path="url(#p8b12c474ea)" style="fill: none; stroke: #dddddd; stroke-width: 0.6; stroke-linecap: square"/>
     </g>
     <g id="line2d_26"/>
    </g>
    <g id="ytick_11">
     <g id="line2d_27">
      <path d="M 273.226154 111.280271 
L 488.88 111.280271 
" clip-path="url(#p8b12c474ea)" style="fill: none; stroke: #dddddd; stroke-width: 0.6; stroke-linecap: square"/>
     </g>
     <g id="line2d_28"/>
    </g>
    <g id="ytick_12">
     <g id="line2d_29">
      <path d="M 273.226154 82.724339 
L 488.88 82.724339 
" clip-path="url(#p8b12c474ea)" style="fill: none; stroke: #dddddd; stroke-width: 0.6; stroke-linecap: square"/>
     </g>
     <g id="line2d_30"/>
    </g>
   </g>
   <g id="patch_7">
    <path d="M 283.028601 225.504 
L 323.483147 225.504 
L 323.483147 82.724339 
L 283.028601 82.724339 
z
" clip-path="url(#p8b12c474ea)" style="fill: #2d5f8a"/>
   </g>
   <g id="patch_8">
    <path d="M 360.825804 225.504 
L 401.28035 225.504 
L 401.28035 111.280271 
L 360.825804 111.280271 
z
" clip-path="url(#p8b12c474ea)" style="fill: #5a9bd5"/>
   </g>
   <g id="patch_9">
    <path d="M 438.623007 225.504 
L 479.077552 225.504 
L 479.077552 82.724339 
L 438.623007 82.724339 
z
" clip-path="url(#p8b12c474ea)" style="fill: #a8d0e6"/>
   </g>
   <g id="text_18">
    <!-- Autonomous Retrieval  (Arm B) -->
    <g style="fill: #333333" transform="translate(304.584366 47.024) scale(0.105 -0.105)">
     <defs>
      <path id="Inter-Regular-52" d="M 563 0 
L 563 4656 
L 2156 4656 
Q 2700 4656 3051 4470 
Q 3403 4284 3573 3959 
Q 3744 3634 3744 3219 
Q 3744 2803 3573 2484 
Q 3403 2166 3053 1986 
Q 2703 1806 2159 1806 
L 894 1806 
L 894 2334 
L 2131 2334 
Q 2500 2334 2723 2442 
Q 2947 2550 3050 2748 
Q 3153 2947 3153 3219 
Q 3153 3497 3050 3701 
Q 2947 3906 2722 4020 
Q 2497 4134 2125 4134 
L 1156 4134 
L 1156 0 
L 563 0 
z
M 3238 0 
L 2113 2097 
L 2781 2097 
L 3925 0 
L 3238 0 
z
" transform="scale(0.015625)"/>
      <path id="Inter-Regular-76" d="M 1503 0 
L 169 3494 
L 784 3494 
L 1528 1422 
Q 1647 1100 1730 779 
Q 1813 459 1903 159 
L 1697 159 
Q 1788 459 1870 779 
Q 1953 1100 2069 1422 
L 2813 3494 
L 3428 3494 
L 2094 0 
L 1503 0 
z
" transform="scale(0.015625)"/>
      <path id="Inter-Regular-42" d="M 563 0 
L 563 4656 
L 2213 4656 
Q 2700 4656 3017 4489 
Q 3334 4322 3489 4042 
Q 3644 3763 3644 3422 
Q 3644 3122 3537 2926 
Q 3431 2731 3257 2615 
Q 3084 2500 2881 2444 
L 2881 2400 
Q 3100 2388 3317 2250 
Q 3534 2113 3679 1859 
Q 3825 1606 3825 1241 
Q 3825 891 3664 609 
Q 3503 328 3159 164 
Q 2816 0 2266 0 
L 563 0 
z
M 1156 525 
L 2250 525 
Q 2794 525 3023 734 
Q 3253 944 3253 1247 
Q 3253 1481 3134 1678 
Q 3016 1875 2798 1994 
Q 2581 2113 2281 2113 
L 1156 2113 
L 1156 525 
z
M 1156 2613 
L 2181 2613 
Q 2431 2613 2634 2711 
Q 2838 2809 2956 2989 
Q 3075 3169 3075 3409 
Q 3075 3713 2864 3922 
Q 2653 4131 2200 4131 
L 1156 4131 
L 1156 2613 
z
" transform="scale(0.015625)"/>
     </defs>
     <use xlink:href="#Inter-Regular-41"/>
     <use xlink:href="#Inter-Regular-75" transform="translate(68.994141 0)"/>
     <use xlink:href="#Inter-Regular-74" transform="translate(128.125 0)"/>
     <use xlink:href="#Inter-Regular-6f" transform="translate(160.839844 0)"/>
     <use xlink:href="#Inter-Regular-6e" transform="translate(220.800781 0)"/>
     <use xlink:href="#Inter-Regular-6f" transform="translate(279.882812 0)"/>
     <use xlink:href="#Inter-Regular-6d" transform="translate(339.84375 0)"/>
     <use xlink:href="#Inter-Regular-6f" transform="translate(427.441406 0)"/>
     <use xlink:href="#Inter-Regular-75" transform="translate(487.402344 0)"/>
     <use xlink:href="#Inter-Regular-73" transform="translate(546.533203 0)"/>
     <use xlink:href="#Inter-Regular-20" transform="translate(599.316406 0)"/>
     <use xlink:href="#Inter-Regular-52" transform="translate(627.441406 0)"/>
     <use xlink:href="#Inter-Regular-65" transform="translate(691.796875 0)"/>
     <use xlink:href="#Inter-Regular-74" transform="translate(750.097656 0)"/>
     <use xlink:href="#Inter-Regular-72" transform="translate(782.8125 0)"/>
     <use xlink:href="#Inter-Regular-69" transform="translate(820.458984 0)"/>
     <use xlink:href="#Inter-Regular-65" transform="translate(844.677734 0)"/>
     <use xlink:href="#Inter-Regular-76" transform="translate(902.978516 0)"/>
     <use xlink:href="#Inter-Regular-61" transform="translate(959.179688 0)"/>
     <use xlink:href="#Inter-Regular-6c" transform="translate(1015.332031 0)"/>
     <use xlink:href="#Inter-Regular-20" transform="translate(1039.550781 0)"/>
     <use xlink:href="#Inter-Regular-20" transform="translate(1067.675781 0)"/>
     <use xlink:href="#Inter-Regular-28" transform="translate(1095.800781 0)"/>
     <use xlink:href="#Inter-Regular-41" transform="translate(1132.275391 0)"/>
     <use xlink:href="#Inter-Regular-72" transform="translate(1201.269531 0)"/>
     <use xlink:href="#Inter-Regular-6d" transform="translate(1238.916016 0)"/>
     <use xlink:href="#Inter-Regular-20" transform="translate(1326.513672 0)"/>
     <use xlink:href="#Inter-Regular-42" transform="translate(1354.638672 0)"/>
     <use xlink:href="#Inter-Regular-29" transform="translate(1420.068359 0)"/>
    </g>
   </g>
   <g id="text_19">
    <!-- 1.0 -->
    <g style="fill: #1a7a3a" transform="translate(295.964077 76.196262) scale(0.11 -0.11)">
     <use xlink:href="#Inter-Regular-31"/>
     <use xlink:href="#Inter-Regular-2e" transform="translate(40.673828 0)"/>
     <use xlink:href="#Inter-Regular-30" transform="translate(69.482422 0)"/>
    </g>
   </g>
   <g id="text_20">
    <!-- 0.8 -->
    <g style="fill: #b8860b" transform="translate(372.595968 104.752194) scale(0.11 -0.11)">
     <use xlink:href="#Inter-Regular-30"/>
     <use xlink:href="#Inter-Regular-2e" transform="translate(63.085938 0)"/>
     <use xlink:href="#Inter-Regular-38" transform="translate(91.894531 0)"/>
    </g>
   </g>
   <g id="text_21">
    <!-- 1.0 -->
    <g style="fill: #1a7a3a" transform="translate(451.558483 76.196262) scale(0.11 -0.11)">
     <use xlink:href="#Inter-Regular-31"/>
     <use xlink:href="#Inter-Regular-2e" transform="translate(40.673828 0)"/>
     <use xlink:href="#Inter-Regular-30" transform="translate(69.482422 0)"/>
    </g>
   </g>
  </g>
  <g id="text_22">
   <!-- Partial context misleads more than no context -->
   <g style="fill: #1a1a1a" transform="translate(111.623359 19.8255) scale(0.13 -0.13)">
    <defs>
     <path id="Inter-Regular-50" d="M 563 0 
L 563 4656 
L 2156 4656 
Q 2700 4656 3051 4457 
Q 3403 4259 3573 3925 
Q 3744 3591 3744 3175 
Q 3744 2759 3573 2421 
Q 3403 2084 3053 1884 
Q 2703 1684 2159 1684 
L 1031 1684 
L 1031 2206 
L 2131 2206 
Q 2500 2206 2725 2332 
Q 2950 2459 3051 2679 
Q 3153 2900 3153 3175 
Q 3153 3450 3051 3667 
Q 2950 3884 2723 4009 
Q 2497 4134 2125 4134 
L 1156 4134 
L 1156 0 
L 563 0 
z
" transform="scale(0.015625)"/>
     <path id="Inter-Regular-78" d="M 203 0 
L 1581 2009 
L 1578 1578 
L 275 3494 
L 931 3494 
L 1366 2816 
Q 1534 2553 1657 2325 
Q 1781 2097 1913 1884 
L 1619 1884 
Q 1753 2097 1864 2325 
Q 1975 2553 2147 2816 
L 2591 3494 
L 3234 3494 
L 1925 1553 
L 1925 1969 
L 3291 0 
L 2638 0 
L 2125 784 
Q 1959 1041 1839 1261 
Q 1719 1481 1591 1684 
L 1888 1684 
Q 1759 1481 1650 1261 
Q 1541 1041 1372 784 
L 853 0 
L 203 0 
z
" transform="scale(0.015625)"/>
     <path id="Inter-Regular-68" d="M 1056 2094 
L 1056 0 
L 494 0 
L 494 4656 
L 1056 4656 
L 1056 2647 
L 959 2647 
Q 1119 3131 1414 3334 
Q 1709 3538 2106 3538 
Q 2459 3538 2726 3392 
Q 2994 3247 3142 2955 
Q 3291 2663 3291 2219 
L 3291 0 
L 2725 0 
L 2725 2172 
Q 2725 2575 2514 2803 
Q 2303 3031 1938 3031 
Q 1688 3031 1488 2922 
Q 1288 2813 1172 2603 
Q 1056 2394 1056 2094 
z
" transform="scale(0.015625)"/>
    </defs>
    <use xlink:href="#Inter-Regular-50"/>
    <use xlink:href="#Inter-Regular-61" transform="translate(63.867188 0)"/>
    <use xlink:href="#Inter-Regular-72" transform="translate(120.019531 0)"/>
    <use xlink:href="#Inter-Regular-74" transform="translate(157.666016 0)"/>
    <use xlink:href="#Inter-Regular-69" transform="translate(190.380859 0)"/>
    <use xlink:href="#Inter-Regular-61" transform="translate(214.599609 0)"/>
    <use xlink:href="#Inter-Regular-6c" transform="translate(270.751953 0)"/>
    <use xlink:href="#Inter-Regular-20" transform="translate(294.970703 0)"/>
    <use xlink:href="#Inter-Regular-63" transform="translate(323.095703 0)"/>
    <use xlink:href="#Inter-Regular-6f" transform="translate(380.224609 0)"/>
    <use xlink:href="#Inter-Regular-6e" transform="translate(440.185547 0)"/>
    <use xlink:href="#Inter-Regular-74" transform="translate(499.267578 0)"/>
    <use xlink:href="#Inter-Regular-65" transform="translate(531.982422 0)"/>
    <use xlink:href="#Inter-Regular-78" transform="translate(590.283203 0)"/>
    <use xlink:href="#Inter-Regular-74" transform="translate(644.873047 0)"/>
    <use xlink:href="#Inter-Regular-20" transform="translate(677.587891 0)"/>
    <use xlink:href="#Inter-Regular-6d" transform="translate(705.712891 0)"/>
    <use xlink:href="#Inter-Regular-69" transform="translate(793.310547 0)"/>
    <use xlink:href="#Inter-Regular-73" transform="translate(817.529297 0)"/>
    <use xlink:href="#Inter-Regular-6c" transform="translate(870.3125 0)"/>
    <use xlink:href="#Inter-Regular-65" transform="translate(894.53125 0)"/>
    <use xlink:href="#Inter-Regular-61" transform="translate(952.832031 0)"/>
    <use xlink:href="#Inter-Regular-64" transform="translate(1008.984375 0)"/>
    <use xlink:href="#Inter-Regular-73" transform="translate(1070.214844 0)"/>
    <use xlink:href="#Inter-Regular-20" transform="translate(1122.998047 0)"/>
    <use xlink:href="#Inter-Regular-6d" transform="translate(1151.123047 0)"/>
    <use xlink:href="#Inter-Regular-6f" transform="translate(1238.720703 0)"/>
    <use xlink:href="#Inter-Regular-72" transform="translate(1298.681641 0)"/>
    <use xlink:href="#Inter-Regular-65" transform="translate(1336.328125 0)"/>
    <use xlink:href="#Inter-Regular-20" transform="translate(1394.628906 0)"/>
    <use xlink:href="#Inter-Regular-74" transform="translate(1422.753906 0)"/>
    <use xlink:href="#Inter-Regular-68" transform="translate(1455.46875 0)"/>
    <use xlink:href="#Inter-Regular-61" transform="translate(1514.599609 0)"/>
    <use xlink:href="#Inter-Regular-6e" transform="translate(1570.751953 0)"/>
    <use xlink:href="#Inter-Regular-20" transform="translate(1629.833984 0)"/>
    <use xlink:href="#Inter-Regular-6e" transform="translate(1657.958984 0)"/>
    <use xlink:href="#Inter-Regular-6f" transform="translate(1717.041016 0)"/>
    <use xlink:href="#Inter-Regular-20" transform="translate(1777.001953 0)"/>
    <use xlink:href="#Inter-Regular-63" transform="translate(1805.126953 0)"/>
    <use xlink:href="#Inter-Regular-6f" transform="translate(1862.255859 0)"/>
    <use xlink:href="#Inter-Regular-6e" transform="translate(1922.216797 0)"/>
    <use xlink:href="#Inter-Regular-74" transform="translate(1981.298828 0)"/>
    <use xlink:href="#Inter-Regular-65" transform="translate(2014.013672 0)"/>
    <use xlink:href="#Inter-Regular-78" transform="translate(2072.314453 0)"/>
    <use xlink:href="#Inter-Regular-74" transform="translate(2126.904297 0)"/>
   </g>
  </g>
  <g id="text_23">
   <!-- All three models score 0.2 with window-only context. The response reads well. It is wrong. -->
   <g style="fill: #666666" transform="translate(63.457937 29.808) scale(0.088 -0.088)">
    <defs>
     <path id="Inter-Italic-41" d="M -128 0 
L 2334 4656 
L 3022 4656 
L 3963 0 
L 3363 0 
L 2834 2763 
Q 2794 2984 2731 3384 
Q 2669 3784 2597 4378 
L 2709 4378 
Q 2456 3813 2267 3416 
Q 2078 3019 1947 2763 
L 528 0 
L -128 0 
z
M 938 1300 
L 1022 1819 
L 3413 1819 
L 3328 1300 
L 938 1300 
z
" transform="scale(0.015625)"/>
     <path id="Inter-Italic-6c" d="M 1538 4656 
L 766 0 
L 203 0 
L 975 4656 
L 1538 4656 
z
" transform="scale(0.015625)"/>
     <path id="Inter-Italic-20" transform="scale(0.015625)"/>
     <path id="Inter-Italic-74" d="M 2159 3494 
L 2081 3013 
L 275 3013 
L 353 3494 
L 2159 3494 
z
M 1019 4325 
L 1581 4325 
L 1016 906 
Q 975 666 1056 561 
Q 1138 456 1353 456 
Q 1406 456 1490 468 
Q 1575 481 1647 494 
L 1681 19 
Q 1597 -9 1484 -26 
Q 1372 -44 1256 -44 
Q 797 -44 586 197 
Q 375 438 444 863 
L 1019 4325 
z
" transform="scale(0.015625)"/>
     <path id="Inter-Italic-68" d="M 1113 2094 
L 766 0 
L 203 0 
L 975 4656 
L 1538 4656 
L 1203 2647 
L 1106 2647 
Q 1269 2975 1464 3170 
Q 1659 3366 1887 3452 
Q 2116 3538 2375 3538 
Q 2728 3538 2978 3392 
Q 3228 3247 3336 2955 
Q 3444 2663 3369 2219 
L 3000 0 
L 2434 0 
L 2797 2172 
Q 2866 2581 2687 2806 
Q 2509 3031 2147 3031 
Q 1900 3031 1683 2922 
Q 1466 2813 1314 2605 
Q 1163 2397 1113 2094 
z
" transform="scale(0.015625)"/>
     <path id="Inter-Italic-72" d="M 206 0 
L 784 3494 
L 1328 3494 
L 1241 2956 
L 1278 2956 
Q 1416 3222 1692 3383 
Q 1969 3544 2281 3544 
Q 2344 3544 2428 3541 
Q 2513 3538 2563 3534 
L 2469 2969 
Q 2431 2975 2336 2987 
Q 2241 3000 2138 3000 
Q 1888 3000 1672 2895 
Q 1456 2791 1314 2608 
Q 1172 2425 1131 2188 
L 769 0 
L 206 0 
z
" transform="scale(0.015625)"/>
     <path id="Inter-Italic-65" d="M 1672 -75 
Q 1241 -75 933 94 
Q 625 263 459 578 
Q 294 894 294 1334 
Q 294 1794 441 2198 
Q 588 2603 850 2911 
Q 1113 3219 1458 3394 
Q 1803 3569 2200 3569 
Q 2538 3569 2788 3451 
Q 3038 3334 3175 3120 
Q 3313 2906 3313 2616 
Q 3313 2322 3161 2114 
Q 3009 1906 2690 1775 
Q 2372 1644 1873 1583 
Q 1375 1522 684 1522 
L 759 1947 
Q 1331 1947 1715 1980 
Q 2100 2013 2326 2091 
Q 2553 2169 2651 2300 
Q 2750 2431 2750 2628 
Q 2750 2828 2583 2948 
Q 2416 3069 2144 3069 
Q 1791 3069 1542 2898 
Q 1294 2728 1137 2461 
Q 981 2194 907 1895 
Q 834 1597 834 1338 
Q 834 1081 918 873 
Q 1003 666 1195 544 
Q 1388 422 1706 422 
Q 2041 422 2302 567 
Q 2563 713 2697 963 
L 3219 816 
Q 3025 403 2608 164 
Q 2191 -75 1672 -75 
z
" transform="scale(0.015625)"/>
     <path id="Inter-Italic-6d" d="M 203 0 
L 784 3494 
L 1331 3494 
L 1206 2713 
L 1159 2728 
Q 1278 3016 1461 3198 
Q 1644 3381 1858 3468 
Q 2072 3556 2288 3556 
Q 2556 3556 2734 3440 
Q 2913 3325 3002 3129 
Q 3091 2934 3097 2688 
L 3028 2725 
Q 3134 2984 3325 3170 
Q 3516 3356 3762 3456 
Q 4009 3556 4278 3556 
Q 4591 3556 4825 3420 
Q 5059 3284 5168 3014 
Q 5278 2744 5209 2338 
L 4822 0 
L 4259 0 
L 4653 2363 
Q 4697 2616 4626 2766 
Q 4556 2916 4414 2980 
Q 4272 3044 4097 3044 
Q 3847 3044 3650 2939 
Q 3453 2834 3329 2657 
Q 3206 2481 3169 2263 
L 2794 0 
L 2231 0 
L 2631 2416 
Q 2681 2713 2522 2878 
Q 2363 3044 2088 3044 
Q 1875 3044 1672 2945 
Q 1469 2847 1322 2653 
Q 1175 2459 1128 2178 
L 766 0 
L 203 0 
z
" transform="scale(0.015625)"/>
     <path id="Inter-Italic-6f" d="M 1650 -75 
Q 1228 -75 925 101 
Q 622 278 458 600 
Q 294 922 294 1353 
Q 294 1769 423 2159 
Q 553 2550 798 2861 
Q 1044 3172 1392 3355 
Q 1741 3538 2178 3538 
Q 2600 3538 2906 3363 
Q 3213 3188 3377 2866 
Q 3541 2544 3541 2106 
Q 3541 1684 3409 1293 
Q 3278 903 3029 593 
Q 2781 284 2432 104 
Q 2084 -75 1650 -75 
z
M 1663 428 
Q 1984 428 2229 578 
Q 2475 728 2640 973 
Q 2806 1219 2890 1512 
Q 2975 1806 2975 2094 
Q 2975 2359 2890 2571 
Q 2806 2784 2628 2909 
Q 2450 3034 2163 3034 
Q 1844 3034 1600 2884 
Q 1356 2734 1190 2487 
Q 1025 2241 940 1945 
Q 856 1650 856 1359 
Q 856 966 1047 697 
Q 1238 428 1663 428 
z
" transform="scale(0.015625)"/>
     <path id="Inter-Italic-64" d="M 1538 -75 
Q 966 -75 630 301 
Q 294 678 294 1328 
Q 294 1741 414 2134 
Q 534 2528 764 2845 
Q 994 3163 1323 3350 
Q 1653 3538 2072 3538 
Q 2419 3538 2608 3423 
Q 2797 3309 2886 3162 
Q 2975 3016 3019 2919 
L 3056 2919 
L 3344 4656 
L 3909 4656 
L 3138 0 
L 2591 0 
L 2684 541 
L 2625 541 
Q 2550 431 2420 286 
Q 2291 141 2077 33 
Q 1863 -75 1538 -75 
z
M 1638 428 
Q 1953 428 2190 581 
Q 2428 734 2587 987 
Q 2747 1241 2828 1544 
Q 2909 1847 2909 2144 
Q 2909 2553 2718 2793 
Q 2528 3034 2138 3034 
Q 1825 3034 1587 2886 
Q 1350 2738 1189 2492 
Q 1028 2247 945 1951 
Q 863 1656 863 1359 
Q 863 953 1052 690 
Q 1241 428 1638 428 
z
" transform="scale(0.015625)"/>
     <path id="Inter-Italic-73" d="M 1409 -75 
Q 1059 -75 798 25 
Q 538 125 383 315 
Q 228 506 197 781 
Q 194 803 192 823 
Q 191 844 191 866 
L 734 956 
Q 759 669 937 544 
Q 1116 419 1419 419 
Q 1672 419 1872 497 
Q 2072 575 2197 703 
Q 2322 831 2347 984 
Q 2372 1150 2272 1261 
Q 2172 1372 1925 1431 
L 1366 1569 
Q 909 1681 711 1928 
Q 513 2175 575 2556 
Q 625 2847 825 3069 
Q 1025 3291 1329 3414 
Q 1634 3538 1997 3538 
Q 2500 3538 2764 3333 
Q 3028 3128 3113 2809 
Q 3122 2778 3130 2745 
Q 3138 2713 3141 2678 
L 2625 2584 
Q 2584 2772 2448 2915 
Q 2313 3059 1988 3059 
Q 1772 3059 1587 2987 
Q 1403 2916 1283 2794 
Q 1163 2672 1138 2516 
Q 1106 2334 1222 2228 
Q 1338 2122 1631 2050 
L 2138 1925 
Q 2594 1813 2791 1566 
Q 2988 1319 2925 947 
Q 2888 725 2759 537 
Q 2631 350 2429 212 
Q 2228 75 1968 0 
Q 1709 -75 1409 -75 
z
" transform="scale(0.015625)"/>
     <path id="Inter-Italic-63" d="M 1650 -75 
Q 1228 -75 925 101 
Q 622 278 458 600 
Q 294 922 294 1353 
Q 294 1769 423 2159 
Q 553 2550 797 2861 
Q 1041 3172 1389 3355 
Q 1738 3538 2178 3538 
Q 2438 3538 2658 3470 
Q 2878 3403 3045 3275 
Q 3213 3147 3319 2965 
Q 3425 2784 3459 2556 
L 2909 2434 
Q 2894 2569 2837 2678 
Q 2781 2788 2687 2867 
Q 2594 2947 2464 2990 
Q 2334 3034 2166 3034 
Q 1847 3034 1603 2884 
Q 1359 2734 1192 2487 
Q 1025 2241 940 1945 
Q 856 1650 856 1359 
Q 856 1100 939 887 
Q 1022 675 1200 551 
Q 1378 428 1663 428 
Q 1844 428 2005 478 
Q 2166 528 2298 617 
Q 2431 706 2531 826 
Q 2631 947 2691 1088 
L 3209 906 
Q 3103 675 2940 494 
Q 2778 313 2575 186 
Q 2372 59 2137 -8 
Q 1903 -75 1650 -75 
z
" transform="scale(0.015625)"/>
     <path id="Inter-Italic-30" d="M 1719 -63 
Q 1200 -63 879 218 
Q 559 500 454 1034 
Q 350 1569 475 2325 
Q 600 3084 884 3618 
Q 1169 4153 1583 4436 
Q 1997 4719 2509 4719 
Q 3022 4719 3342 4437 
Q 3663 4156 3770 3623 
Q 3878 3091 3753 2334 
Q 3628 1569 3347 1033 
Q 3066 497 2652 217 
Q 2238 -63 1719 -63 
z
M 1803 456 
Q 2147 456 2422 679 
Q 2697 903 2890 1323 
Q 3084 1744 3181 2334 
Q 3278 2916 3225 3334 
Q 3172 3753 2972 3978 
Q 2772 4203 2425 4203 
Q 2091 4203 1816 3986 
Q 1541 3769 1344 3348 
Q 1147 2928 1047 2322 
Q 950 1734 1004 1317 
Q 1059 900 1261 678 
Q 1463 456 1803 456 
z
" transform="scale(0.015625)"/>
     <path id="Inter-Italic-2e" d="M 656 -41 
Q 475 -41 361 93 
Q 247 228 278 419 
Q 306 584 439 692 
Q 572 800 725 800 
Q 916 800 1023 665 
Q 1131 531 1106 353 
Q 1084 191 953 75 
Q 822 -41 656 -41 
z
" transform="scale(0.015625)"/>
     <path id="Inter-Italic-32" d="M 191 0 
L 263 428 
L 2084 2106 
Q 2394 2391 2603 2606 
Q 2813 2822 2930 3014 
Q 3047 3206 3081 3422 
Q 3122 3669 3044 3842 
Q 2966 4016 2795 4109 
Q 2625 4203 2381 4203 
Q 2119 4203 1894 4095 
Q 1669 3988 1517 3794 
Q 1366 3600 1322 3334 
L 756 3334 
Q 825 3747 1061 4058 
Q 1297 4369 1647 4544 
Q 1997 4719 2413 4719 
Q 2831 4719 3128 4544 
Q 3425 4369 3564 4073 
Q 3703 3778 3641 3413 
Q 3609 3222 3526 3039 
Q 3444 2856 3292 2656 
Q 3141 2456 2898 2209 
Q 2656 1963 2303 1644 
L 1103 559 
L 1097 522 
L 3241 522 
L 3156 0 
L 191 0 
z
" transform="scale(0.015625)"/>
     <path id="Inter-Italic-77" d="M 991 0 
L 509 3494 
L 1106 3494 
L 1278 1969 
Q 1313 1656 1347 1262 
Q 1381 869 1400 366 
L 1303 366 
Q 1475 844 1636 1239 
Q 1797 1634 1944 1969 
L 2616 3494 
L 3216 3494 
L 3375 1969 
Q 3409 1656 3439 1262 
Q 3469 869 3484 366 
L 3384 366 
Q 3559 847 3721 1239 
Q 3884 1631 4034 1969 
L 4713 3494 
L 5309 3494 
L 3672 0 
L 3113 0 
L 2922 1581 
Q 2897 1803 2872 2050 
Q 2847 2297 2826 2567 
Q 2806 2838 2788 3119 
L 2909 3119 
Q 2800 2841 2689 2573 
Q 2578 2306 2472 2056 
Q 2366 1806 2263 1578 
L 1550 0 
L 991 0 
z
" transform="scale(0.015625)"/>
     <path id="Inter-Italic-69" d="M 206 0 
L 784 3494 
L 1347 3494 
L 769 0 
L 206 0 
z
M 1164 4066 
Q 1005 4066 908 4175 
Q 811 4284 836 4438 
Q 861 4594 995 4701 
Q 1130 4809 1289 4809 
Q 1452 4809 1549 4701 
Q 1646 4594 1621 4438 
Q 1596 4284 1461 4175 
Q 1327 4066 1164 4066 
z
" transform="scale(0.015625)"/>
     <path id="Inter-Italic-6e" d="M 1113 2075 
L 766 0 
L 203 0 
L 784 3494 
L 1325 3494 
L 1188 2647 
L 1106 2666 
Q 1341 3141 1659 3339 
Q 1978 3538 2369 3538 
Q 2731 3538 2981 3388 
Q 3231 3238 3336 2941 
Q 3441 2644 3366 2200 
L 3000 0 
L 2438 0 
L 2803 2191 
Q 2872 2600 2703 2815 
Q 2534 3031 2181 3031 
Q 1925 3031 1700 2917 
Q 1475 2803 1319 2589 
Q 1163 2375 1113 2075 
z
" transform="scale(0.015625)"/>
     <path id="Inter-Italic-2d" d="M 2581 2247 
L 2494 1728 
L 450 1728 
L 538 2247 
L 2581 2247 
z
" transform="scale(0.015625)"/>
     <path id="Inter-Italic-79" d="M -59 -1266 
L 166 -778 
L 219 -791 
Q 391 -831 536 -811 
Q 681 -791 811 -673 
Q 941 -556 1066 -309 
L 1213 -19 
L 459 3494 
L 1047 3494 
L 1450 1422 
Q 1513 1100 1542 779 
Q 1572 459 1613 159 
L 1406 159 
Q 1547 459 1681 779 
Q 1816 1100 1988 1422 
L 3078 3494 
L 3719 3494 
L 1519 -522 
Q 1369 -797 1189 -976 
Q 1009 -1156 798 -1243 
Q 588 -1331 338 -1331 
Q 200 -1331 92 -1309 
Q -16 -1288 -59 -1266 
z
" transform="scale(0.015625)"/>
     <path id="Inter-Italic-78" d="M -88 0 
L 1625 2009 
L 1550 1578 
L 563 3494 
L 1194 3494 
L 1519 2816 
Q 1647 2553 1730 2325 
Q 1813 2097 1909 1884 
L 1616 1884 
Q 1784 2097 1934 2325 
Q 2084 2553 2297 2816 
L 2853 3494 
L 3522 3494 
L 1894 1553 
L 1959 1969 
L 3000 0 
L 2363 0 
L 1978 784 
Q 1853 1041 1772 1261 
Q 1691 1481 1594 1684 
L 1891 1684 
Q 1728 1481 1583 1261 
Q 1438 1041 1225 784 
L 578 0 
L -88 0 
z
" transform="scale(0.015625)"/>
     <path id="Inter-Italic-54" d="M 706 4134 
L 794 4656 
L 4313 4656 
L 4225 4134 
L 2766 4134 
L 2081 0 
L 1488 0 
L 2172 4134 
L 706 4134 
z
" transform="scale(0.015625)"/>
     <path id="Inter-Italic-70" d="M -13 -1306 
L 784 3494 
L 1328 3494 
L 1234 2934 
L 1263 2934 
Q 1338 3041 1470 3183 
Q 1603 3325 1822 3431 
Q 2041 3538 2372 3538 
Q 2756 3538 3037 3369 
Q 3319 3200 3472 2887 
Q 3625 2575 3625 2141 
Q 3625 1734 3504 1339 
Q 3384 944 3156 625 
Q 2928 306 2598 115 
Q 2269 -75 1850 -75 
Q 1509 -75 1320 42 
Q 1131 159 1042 309 
Q 953 459 913 556 
L 859 556 
L 550 -1306 
L -13 -1306 
z
M 1775 428 
Q 2088 428 2327 581 
Q 2566 734 2730 986 
Q 2894 1238 2976 1536 
Q 3059 1834 3059 2125 
Q 3059 2525 2870 2779 
Q 2681 3034 2278 3034 
Q 1963 3034 1725 2886 
Q 1488 2738 1330 2491 
Q 1172 2244 1092 1944 
Q 1013 1644 1013 1341 
Q 1013 925 1203 676 
Q 1394 428 1775 428 
z
" transform="scale(0.015625)"/>
     <path id="Inter-Italic-61" d="M 1503 -75 
Q 1069 -75 772 148 
Q 475 372 354 780 
Q 234 1188 325 1741 
Q 419 2297 675 2698 
Q 931 3100 1303 3319 
Q 1675 3538 2109 3538 
Q 2447 3538 2628 3427 
Q 2809 3316 2892 3173 
Q 2975 3031 3019 2934 
L 3066 2934 
L 3156 3494 
L 3722 3494 
L 3144 0 
L 2597 0 
L 2684 541 
L 2619 541 
Q 2541 438 2406 292 
Q 2272 147 2053 36 
Q 1834 -75 1503 -75 
z
M 1678 428 
Q 1997 428 2242 597 
Q 2488 766 2650 1062 
Q 2813 1359 2875 1747 
Q 2941 2134 2877 2423 
Q 2813 2713 2620 2873 
Q 2428 3034 2109 3034 
Q 1775 3034 1523 2861 
Q 1272 2688 1114 2397 
Q 956 2106 897 1747 
Q 838 1381 900 1081 
Q 963 781 1156 604 
Q 1350 428 1678 428 
z
" transform="scale(0.015625)"/>
     <path id="Inter-Italic-49" d="M 1638 4656 
L 866 0 
L 272 0 
L 1044 4656 
L 1638 4656 
z
" transform="scale(0.015625)"/>
     <path id="Inter-Italic-67" d="M 1425 -1381 
Q 1022 -1381 750 -1276 
Q 478 -1172 315 -1005 
Q 153 -838 78 -653 
L 563 -391 
Q 616 -484 703 -601 
Q 791 -719 962 -805 
Q 1134 -891 1438 -891 
Q 1869 -891 2184 -680 
Q 2500 -469 2572 -41 
L 2688 641 
L 2638 628 
Q 2559 525 2431 390 
Q 2303 256 2093 156 
Q 1884 56 1556 56 
Q 1184 56 901 211 
Q 619 366 459 662 
Q 300 959 300 1384 
Q 300 1784 422 2167 
Q 544 2550 775 2859 
Q 1006 3169 1334 3353 
Q 1663 3538 2075 3538 
Q 2334 3538 2503 3469 
Q 2672 3400 2773 3297 
Q 2875 3194 2929 3091 
Q 2984 2988 3016 2919 
L 3081 2934 
L 3175 3494 
L 3722 3494 
L 3122 -109 
Q 3047 -559 2803 -839 
Q 2559 -1119 2201 -1250 
Q 1844 -1381 1425 -1381 
z
M 1659 556 
Q 1981 556 2217 697 
Q 2453 838 2608 1070 
Q 2763 1303 2838 1586 
Q 2913 1869 2913 2156 
Q 2913 2556 2722 2795 
Q 2531 3034 2141 3034 
Q 1838 3034 1600 2893 
Q 1363 2753 1198 2517 
Q 1034 2281 950 1993 
Q 866 1706 866 1416 
Q 866 1025 1062 790 
Q 1259 556 1659 556 
z
" transform="scale(0.015625)"/>
    </defs>
    <use xlink:href="#Inter-Italic-41"/>
    <use xlink:href="#Inter-Italic-6c" transform="translate(68.994141 0)"/>
    <use xlink:href="#Inter-Italic-6c" transform="translate(93.212891 0)"/>
    <use xlink:href="#Inter-Italic-20" transform="translate(117.431641 0)"/>
    <use xlink:href="#Inter-Italic-74" transform="translate(145.556641 0)"/>
    <use xlink:href="#Inter-Italic-68" transform="translate(178.369141 0)"/>
    <use xlink:href="#Inter-Italic-72" transform="translate(237.5 0)"/>
    <use xlink:href="#Inter-Italic-65" transform="translate(275.195312 0)"/>
    <use xlink:href="#Inter-Italic-65" transform="translate(332.763672 0)"/>
    <use xlink:href="#Inter-Italic-20" transform="translate(390.332031 0)"/>
    <use xlink:href="#Inter-Italic-6d" transform="translate(418.457031 0)"/>
    <use xlink:href="#Inter-Italic-6f" transform="translate(506.054688 0)"/>
    <use xlink:href="#Inter-Italic-64" transform="translate(566.064453 0)"/>
    <use xlink:href="#Inter-Italic-65" transform="translate(627.34375 0)"/>
    <use xlink:href="#Inter-Italic-6c" transform="translate(684.912109 0)"/>
    <use xlink:href="#Inter-Italic-73" transform="translate(709.130859 0)"/>
    <use xlink:href="#Inter-Italic-20" transform="translate(761.865234 0)"/>
    <use xlink:href="#Inter-Italic-73" transform="translate(789.990234 0)"/>
    <use xlink:href="#Inter-Italic-63" transform="translate(842.724609 0)"/>
    <use xlink:href="#Inter-Italic-6f" transform="translate(899.902344 0)"/>
    <use xlink:href="#Inter-Italic-72" transform="translate(959.912109 0)"/>
    <use xlink:href="#Inter-Italic-65" transform="translate(997.607422 0)"/>
    <use xlink:href="#Inter-Italic-20" transform="translate(1055.175781 0)"/>
    <use xlink:href="#Inter-Italic-30" transform="translate(1083.300781 0)"/>
    <use xlink:href="#Inter-Italic-2e" transform="translate(1146.337891 0)"/>
    <use xlink:href="#Inter-Italic-32" transform="translate(1175.097656 0)"/>
    <use xlink:href="#Inter-Italic-20" transform="translate(1236.083984 0)"/>
    <use xlink:href="#Inter-Italic-77" transform="translate(1264.208984 0)"/>
    <use xlink:href="#Inter-Italic-69" transform="translate(1346.044922 0)"/>
    <use xlink:href="#Inter-Italic-74" transform="translate(1370.3125 0)"/>
    <use xlink:href="#Inter-Italic-68" transform="translate(1403.125 0)"/>
    <use xlink:href="#Inter-Italic-20" transform="translate(1462.255859 0)"/>
    <use xlink:href="#Inter-Italic-77" transform="translate(1490.380859 0)"/>
    <use xlink:href="#Inter-Italic-69" transform="translate(1572.216797 0)"/>
    <use xlink:href="#Inter-Italic-6e" transform="translate(1596.484375 0)"/>
    <use xlink:href="#Inter-Italic-64" transform="translate(1655.615234 0)"/>
    <use xlink:href="#Inter-Italic-6f" transform="translate(1716.894531 0)"/>
    <use xlink:href="#Inter-Italic-77" transform="translate(1776.904297 0)"/>
    <use xlink:href="#Inter-Italic-2d" transform="translate(1858.740234 0)"/>
    <use xlink:href="#Inter-Italic-6f" transform="translate(1904.833984 0)"/>
    <use xlink:href="#Inter-Italic-6e" transform="translate(1964.84375 0)"/>
    <use xlink:href="#Inter-Italic-6c" transform="translate(2023.974609 0)"/>
    <use xlink:href="#Inter-Italic-79" transform="translate(2048.193359 0)"/>
    <use xlink:href="#Inter-Italic-20" transform="translate(2104.394531 0)"/>
    <use xlink:href="#Inter-Italic-63" transform="translate(2132.519531 0)"/>
    <use xlink:href="#Inter-Italic-6f" transform="translate(2189.697266 0)"/>
    <use xlink:href="#Inter-Italic-6e" transform="translate(2249.707031 0)"/>
    <use xlink:href="#Inter-Italic-74" transform="translate(2308.837891 0)"/>
    <use xlink:href="#Inter-Italic-65" transform="translate(2341.650391 0)"/>
    <use xlink:href="#Inter-Italic-78" transform="translate(2399.21875 0)"/>
    <use xlink:href="#Inter-Italic-74" transform="translate(2453.808594 0)"/>
    <use xlink:href="#Inter-Italic-2e" transform="translate(2486.621094 0)"/>
    <use xlink:href="#Inter-Italic-20" transform="translate(2515.380859 0)"/>
    <use xlink:href="#Inter-Italic-54" transform="translate(2543.505859 0)"/>
    <use xlink:href="#Inter-Italic-68" transform="translate(2608.154297 0)"/>
    <use xlink:href="#Inter-Italic-65" transform="translate(2667.285156 0)"/>
    <use xlink:href="#Inter-Italic-20" transform="translate(2724.853516 0)"/>
    <use xlink:href="#Inter-Italic-72" transform="translate(2752.978516 0)"/>
    <use xlink:href="#Inter-Italic-65" transform="translate(2790.673828 0)"/>
    <use xlink:href="#Inter-Italic-73" transform="translate(2848.242188 0)"/>
    <use xlink:href="#Inter-Italic-70" transform="translate(2900.976562 0)"/>
    <use xlink:href="#Inter-Italic-6f" transform="translate(2962.255859 0)"/>
    <use xlink:href="#Inter-Italic-6e" transform="translate(3022.265625 0)"/>
    <use xlink:href="#Inter-Italic-73" transform="translate(3081.396484 0)"/>
    <use xlink:href="#Inter-Italic-65" transform="translate(3134.130859 0)"/>
    <use xlink:href="#Inter-Italic-20" transform="translate(3191.699219 0)"/>
    <use xlink:href="#Inter-Italic-72" transform="translate(3219.824219 0)"/>
    <use xlink:href="#Inter-Italic-65" transform="translate(3257.519531 0)"/>
    <use xlink:href="#Inter-Italic-61" transform="translate(3315.087891 0)"/>
    <use xlink:href="#Inter-Italic-64" transform="translate(3376.464844 0)"/>
    <use xlink:href="#Inter-Italic-73" transform="translate(3437.744141 0)"/>
    <use xlink:href="#Inter-Italic-20" transform="translate(3490.478516 0)"/>
    <use xlink:href="#Inter-Italic-77" transform="translate(3518.603516 0)"/>
    <use xlink:href="#Inter-Italic-65" transform="translate(3600.439453 0)"/>
    <use xlink:href="#Inter-Italic-6c" transform="translate(3658.007812 0)"/>
    <use xlink:href="#Inter-Italic-6c" transform="translate(3682.226562 0)"/>
    <use xlink:href="#Inter-Italic-2e" transform="translate(3706.445312 0)"/>
    <use xlink:href="#Inter-Italic-20" transform="translate(3735.205078 0)"/>
    <use xlink:href="#Inter-Italic-49" transform="translate(3763.330078 0)"/>
    <use xlink:href="#Inter-Italic-74" transform="translate(3790.185547 0)"/>
    <use xlink:href="#Inter-Italic-20" transform="translate(3822.998047 0)"/>
    <use xlink:href="#Inter-Italic-69" transform="translate(3851.123047 0)"/>
    <use xlink:href="#Inter-Italic-73" transform="translate(3875.390625 0)"/>
    <use xlink:href="#Inter-Italic-20" transform="translate(3928.125 0)"/>
    <use xlink:href="#Inter-Italic-77" transform="translate(3956.25 0)"/>
    <use xlink:href="#Inter-Italic-72" transform="translate(4038.085938 0)"/>
    <use xlink:href="#Inter-Italic-6f" transform="translate(4075.78125 0)"/>
    <use xlink:href="#Inter-Italic-6e" transform="translate(4135.791016 0)"/>
    <use xlink:href="#Inter-Italic-67" transform="translate(4194.921875 0)"/>
    <use xlink:href="#Inter-Italic-2e" transform="translate(4256.25 0)"/>
   </g>
  </g>
 </g>
 <defs>
  <clipPath id="pcfc16675e4">
   <rect x="40.32" y="57.024" width="215.653846" height="168.48"/>
  </clipPath>
  <clipPath id="p8b12c474ea">
   <rect x="273.226154" y="57.024" width="215.653846" height="168.48"/>
  </clipPath>
 </defs>
</svg>
